<svg xmlns="http://www.w3.org/2000/svg" xmlns:xlink="http://www.w3.org/1999/xlink"><symbol id="icon-arrow" viewBox="0 0 11 8"><g fill="none">
<path d="M0.646446 3.64645C0.451184 3.84171 0.451184 4.15829 0.646446 4.35355L3.82843 7.53553C4.02369 7.7308 4.34027 7.7308 4.53553 7.53553C4.7308 7.34027 4.7308 7.02369 4.53553 6.82843L1.70711 4L4.53553 1.17157C4.7308 0.976311 4.7308 0.659728 4.53553 0.464466C4.34027 0.269204 4.02369 0.269204 3.82843 0.464466L0.646446 3.64645ZM11 3.5L1 3.5V4.5L11 4.5V3.5Z" fill="#0A3B93"/>
</g></symbol><symbol id="icon-logo" viewBox="0 0 267 103"><g fill="none">
<rect width="267" height="103" fill="#0A398A"/>
<path d="M133.005 62.3922H124.752V40.3294H133.005V62.3922ZM125.558 61.5863H132.199V41.1353H125.558V61.5863ZM144.488 62.3922H136.401V40.3294H153.297C155.717 40.1334 158.127 40.8129 160.089 42.2442C160.933 43.0168 161.588 43.974 162.001 45.0412C162.415 46.1085 162.576 47.2568 162.473 48.3966C162.593 50.3662 161.967 52.3089 160.718 53.8366C159.239 55.5322 156.78 56.4059 153.408 56.4365C152.558 56.4591 146.193 56.4365 144.493 56.4365L144.488 62.3922ZM137.202 61.5863H143.682V55.6225H144.087C144.169 55.6225 152.433 55.6483 153.388 55.6225C156.53 55.5951 158.788 54.8166 160.108 53.2966C161.22 51.9144 161.772 50.1651 161.656 48.395C161.755 47.3737 161.617 46.3433 161.254 45.3837C160.89 44.4241 160.311 43.561 159.56 42.8616C157.741 41.5561 155.516 40.9434 153.285 41.1337H137.207L137.202 61.5863ZM151.585 51.4801H143.627V45.4744H151.638C152.206 45.3959 152.784 45.4622 153.32 45.667C153.855 45.8719 154.33 46.2087 154.701 46.6462C155.037 47.2054 155.195 47.8534 155.155 48.5046C155.185 49.1092 155.055 49.711 154.776 50.2486C154.394 50.7094 153.9 51.0641 153.341 51.2787C152.782 51.4932 152.177 51.5603 151.585 51.4736V51.4801ZM144.433 50.6742H151.585C152.907 50.6742 153.725 50.3985 154.088 49.8312C154.288 49.4188 154.378 48.962 154.351 48.5046C154.386 48.0244 154.282 47.5442 154.051 47.1217L154.041 47.1071C153.658 46.543 152.895 46.2803 151.638 46.2803H144.433V50.6742ZM177.181 62.7178C169.944 62.7178 165.624 60.9206 163.978 57.2247C163.709 56.5108 163.526 55.7673 163.433 55.01L163.363 54.5458H171.973L172.029 54.8843C172.096 55.2279 172.242 55.5514 172.455 55.8288C172.795 56.2398 173.93 56.9297 177.695 56.9297C182.221 56.9297 182.221 56.1351 182.221 55.7079C182.221 54.9874 181.697 54.7408 178.006 54.3475L177.305 54.2815C175.916 54.1509 174.159 53.9849 173.356 53.9156C166.586 53.3031 163.564 51.1996 163.564 47.0975C163.564 42.789 168.707 40.0054 176.668 40.0054C183.162 40.0054 187.347 41.7171 189.102 45.0972C189.518 45.8834 189.798 46.7348 189.929 47.6149L189.985 48.0678H181.365L181.33 47.7035C181.296 47.4188 181.175 47.1518 180.982 46.9395C180.659 46.5075 179.641 45.7935 176.478 45.7935C172.595 45.7935 172.06 46.2899 172.06 46.8251C172.06 47.5391 173.287 47.7922 177.218 48.2129C178.857 48.3467 181.493 48.6174 182.395 48.727C188.07 49.3428 190.603 51.3946 190.603 55.3823C190.604 58.7269 188.275 62.7178 177.181 62.7178ZM164.304 55.3517C164.385 55.8833 164.524 56.4043 164.718 56.9055C166.217 60.2727 170.295 61.9119 177.181 61.9119C182.938 61.9119 189.803 60.7836 189.803 55.3823C189.803 51.8476 187.563 50.0971 182.31 49.5281C181.407 49.4185 178.788 49.1494 177.152 49.014C172.961 48.5594 171.257 48.3176 171.257 46.8251C171.257 45.2809 173.093 44.9876 176.481 44.9876C179.159 44.9876 180.888 45.4711 181.622 46.4463C181.821 46.6865 181.973 46.9636 182.066 47.2619H189.052C188.912 46.6385 188.689 46.0364 188.391 45.4711C186.779 42.378 182.842 40.8113 176.672 40.8113C169.201 40.8113 164.373 43.279 164.373 47.0975C164.373 50.7402 167.083 52.5391 173.43 53.1129C174.236 53.1822 175.991 53.3482 177.384 53.4804L178.09 53.5465C181.518 53.9075 183.03 54.1332 183.03 55.7079C183.03 57.4036 181.075 57.7356 177.698 57.7356C174.575 57.7356 172.602 57.2666 171.839 56.343C171.604 56.0485 171.427 55.7121 171.317 55.3517H164.304ZM205.915 62.6904C197.501 62.6904 192.859 59.2878 192.859 53.108V40.3294H201.002V53.108C201.002 55.2276 202.899 56.4429 206.205 56.4429C209.365 56.4429 211.326 55.1744 211.326 53.1354V40.3294H219.385V53.785C219.393 59.4442 214.479 62.6904 205.91 62.6904H205.915ZM193.665 41.1353V53.108C193.665 60.7449 201.334 61.8845 205.915 61.8845C210.651 61.8845 218.592 60.832 218.592 53.785V41.1353H212.145V53.1354C212.145 55.6338 209.817 57.2489 206.218 57.2489C202.456 57.2489 200.209 55.7015 200.209 53.108V41.1353H193.665ZM253.537 62.3922H245.852V52.4311L241.493 62.3922H234.79L230.476 52.4504V62.3922H222.764V40.3294H232.909L238.179 52.4939L243.705 40.3294H253.547L253.537 62.3922ZM246.658 61.5863H252.731V41.1353H244.217L238.154 54.4797L232.374 41.1353H223.563V61.5863H229.664V48.5723L235.306 61.5912H240.947L246.648 48.5917L246.658 61.5863ZM20.7581 40.7323H13.4177V61.9893H33.7011V56.3301H20.7581V40.7323ZM48.5172 40.2488C39.1476 40.2488 34.2202 44.6894 34.2202 51.2093C34.2202 58.5754 39.3926 62.3117 48.5172 62.3117C58.5622 62.3117 62.7868 57.979 62.7868 51.2093C62.7868 44.3348 58.0206 40.2455 48.5172 40.2455V40.2488ZM48.4898 45.7725C49.1276 45.7695 49.7651 45.8067 50.3982 45.8838L42.1923 54.0896C41.804 53.2114 41.6146 52.258 41.6379 51.2979C41.6379 47.963 43.3174 45.7693 48.4898 45.7693V45.7725ZM48.5172 56.8749C47.9026 56.8777 47.2885 56.8432 46.6781 56.7718L54.8985 48.5514C55.2723 49.4151 55.4512 50.3507 55.4223 51.2915C55.4223 54.5361 53.875 56.8717 48.5172 56.8717V56.8749ZM77.3305 53.9736H84.8852C84.774 54.4979 84.5422 54.9891 84.2082 55.4081C82.642 56.6841 80.6431 57.305 78.6296 57.1409C77.6161 57.2493 76.5913 57.1386 75.6243 56.8162C74.6574 56.494 73.7709 55.9676 73.0253 55.2727C72.2614 54.1523 71.8986 52.8068 71.9953 51.4543C71.8717 50.0371 72.2662 48.6231 73.1058 47.4746C74.1616 46.2819 75.9491 45.7677 78.5764 45.7677C80.2481 45.6293 81.9176 46.0586 83.3153 46.9863C83.7558 47.3362 84.0851 47.8065 84.263 48.3402H91.2697C91.2188 47.4609 91.0073 46.5983 90.6459 45.7951C88.968 42.3828 85.0673 40.3519 78.4346 40.3519C72.6658 40.3519 68.7942 42.112 66.6553 44.7668C65.2426 46.6838 64.5175 49.0211 64.5969 51.4011C64.5055 53.835 65.212 56.2319 66.6085 58.2272C68.7216 60.9674 72.4853 62.3149 77.0081 62.3149C80.015 62.5246 83.0014 61.6824 85.4558 59.9326L85.646 61.9893H91.4663V49.3976H77.3305V53.9736ZM107.986 40.2439C98.6181 40.2439 93.6891 44.6845 93.6891 51.2045C93.6891 58.5706 98.8599 62.3068 107.986 62.3068C118.033 62.3068 122.257 57.9742 122.257 51.2045C122.257 44.3348 117.491 40.2455 107.986 40.2455V40.2439ZM107.96 45.7677C108.581 45.7659 109.202 45.8014 109.819 45.8741L101.645 54.0526C101.269 53.184 101.086 52.2443 101.108 51.2979C101.102 47.963 102.788 45.7693 107.96 45.7693V45.7677ZM107.986 56.8701C107.355 56.8728 106.725 56.8361 106.099 56.7605L114.346 48.5111C114.734 49.3863 114.92 50.3378 114.89 51.2947C114.893 54.5361 113.352 56.8717 107.986 56.8717V56.8701Z" fill="white"/>
</g></symbol><symbol id="icon-number" viewBox="0 0 148 66"><g fill="none">
<path d="M5.39111 55.2537H17.9704V22.3433C17.9704 20.7313 18.0153 19.0448 18.1051 17.2836L10.6924 23.4179C10.2132 23.806 9.73395 24.0896 9.25474 24.2687C8.77553 24.4179 8.3113 24.4925 7.86204 24.4925C7.08332 24.4925 6.37948 24.3284 5.75052 24C5.15151 23.6418 4.70225 23.2687 4.40274 22.8806L0 17.0597L20.3964 0H31.8974V55.2537H42.6796V65.2836H5.39111V55.2537Z" fill="#8A7B60"/>
<path d="M77.0999 23.9552C79.466 23.9552 81.8021 24.3433 84.1083 25.1194C86.4145 25.8955 88.4811 27.0896 90.3081 28.7015C92.1351 30.3134 93.6027 32.3582 94.7108 34.8358C95.849 37.2836 96.418 40.1791 96.418 43.5224C96.418 46.5672 95.849 49.4627 94.7108 52.209C93.5727 54.9254 91.9554 57.3134 89.8588 59.3731C87.7923 61.403 85.2914 63.0149 82.3562 64.209C79.4211 65.403 76.1714 66 72.6073 66C68.9533 66 65.6737 65.4328 62.7685 64.2985C59.8633 63.1343 57.3924 61.5224 55.3557 59.4627C53.3491 57.403 51.8066 54.9403 50.7284 52.0746C49.6801 49.209 49.156 46.0597 49.156 42.6269C49.156 39.3731 49.7849 36.1343 51.0429 32.9104C52.3008 29.6866 54.1577 26.403 56.6137 23.0597L71.3494 3.22388C72.0083 2.32836 72.9967 1.58209 74.3145 0.985072C75.6323 0.35821 77.1298 0.0447781 78.8071 0.0447781H91.2066L71.7986 23.1493C71.4991 23.4776 71.1996 23.8209 70.9001 24.1791C70.6306 24.5075 70.361 24.8358 70.0914 25.1642C71.1397 24.7761 72.2329 24.4776 73.371 24.2687C74.5391 24.0597 75.7821 23.9552 77.0999 23.9552ZM62.5439 44.5075C62.5439 46.1194 62.7386 47.5672 63.1279 48.8507C63.5173 50.1343 64.1163 51.2388 64.925 52.1642C65.7336 53.0896 66.7519 53.806 67.9799 54.3134C69.2079 54.791 70.6605 55.0299 72.3377 55.0299C73.7754 55.0299 75.1082 54.7612 76.3361 54.2239C77.5941 53.6866 78.6723 52.9552 79.5708 52.0299C80.4693 51.0746 81.1732 49.9701 81.6823 48.7164C82.2214 47.4328 82.491 46.0448 82.491 44.5522C82.491 42.8806 82.2364 41.3881 81.7273 40.0746C81.248 38.7612 80.5592 37.6567 79.6607 36.7612C78.7621 35.8657 77.669 35.1791 76.3811 34.7015C75.1232 34.2239 73.7155 33.9851 72.158 33.9851C70.7504 33.9851 69.4625 34.2388 68.2944 34.7463C67.1263 35.2239 66.108 35.9254 65.2394 36.8507C64.4008 37.7761 63.7419 38.8806 63.2627 40.1642C62.7835 41.4478 62.5439 42.8955 62.5439 44.5075Z" fill="#8A7B60"/>
<path d="M148 0.0447781V5.86567C148 7.50746 147.82 8.83582 147.461 9.85075C147.102 10.8657 146.757 11.7313 146.428 12.4478L123.56 60.7164C122.961 62 122.078 63.0896 120.91 63.9851C119.742 64.8507 118.199 65.2836 116.282 65.2836H106.129L129.491 18.5821C130.119 17.2985 130.793 16.1493 131.512 15.1343C132.261 14.1194 133.07 13.1493 133.938 12.2239H105.141C104.721 12.2239 104.317 12.1493 103.928 12C103.568 11.8209 103.239 11.597 102.939 11.3284C102.67 11.0299 102.445 10.7015 102.265 10.3433C102.086 9.95522 101.996 9.56717 101.996 9.17911V0.0447781H148Z" fill="#8A7B60"/>
</g></symbol><symbol id="icon-quotes" viewBox="0 0 47 60"><g fill="none">
<path d="M0 30.8614V29.1386L18.5468 0L22.8669 2.09738C23.5621 2.44694 24.0835 2.89638 24.4311 3.44569C24.7787 3.99501 24.9525 4.59426 24.9525 5.24345C24.9525 6.09238 24.7042 6.91635 24.2076 7.71536L12.3645 27.2659C11.6693 28.4644 10.9741 29.3883 10.2789 30.0375C11.0238 30.7366 11.719 31.6355 12.3645 32.7341L24.2076 52.2846C24.4559 52.6842 24.6297 53.1086 24.729 53.5581C24.878 54.0075 24.9525 54.432 24.9525 54.8315C24.9525 56.2297 24.2573 57.2534 22.8669 57.9026L18.5468 60L0 30.8614ZM22.0475 30.8614V29.1386L40.5943 0L44.9144 2.09738C45.6096 2.44694 46.131 2.89638 46.4786 3.44569C46.8262 3.99501 47 4.59426 47 5.24345C47 6.09238 46.7517 6.91635 46.2551 7.71536L34.412 27.2659C33.7169 28.4644 33.0217 29.3883 32.3265 30.0375C33.0713 30.7366 33.7665 31.6355 34.412 32.7341L46.2551 52.2846C46.5034 52.6842 46.6772 53.1086 46.7765 53.5581C46.9255 54.0075 47 54.432 47 54.8315C47 56.2297 46.3048 57.2534 44.9144 57.9026L40.5943 60L22.0475 30.8614Z" fill="white"/>
</g></symbol><symbol id="icon-toggle" viewBox="0 0 17 17"><g fill="none">
<path d="M16 8.50046H1" stroke="white" stroke-linecap="round" stroke-linejoin="round"/>
<path d="M8.50253 16V1" stroke="white" stroke-linecap="round" stroke-linejoin="round"/>
</g></symbol><symbol id="icon-triangle" viewBox="0 0 18 20"><g fill="none">
<path d="M0.289307 19.4306L17.6811 9.99191L0.289569 0.553223L0.289307 19.4306Z" fill="white"/>
</g></symbol></svg>